PathFileType	4	(X/Y/Z)	C:/Users/beibeiliu/ov580/test_trc/capture2\sequence.36_training_dense_left.trc
DataRate	CameraRate	NumFrames	NumMarkers	Units	OrigDataRate	OrigDataStartFrame	OrigNumFrames
120	120	21	19	mm	120	1	374
Frame#	Time	ThumbCMC			ThumbMCP			ThumbIP			ThumbTip			IndexMCP			IndexPIP			IndexTip			MiddleMCP			MiddlePIP			MiddleTip			RingMCP			RingPIP			RingTip			PinkyMCP			PinkyPIP			PinkyTip			BackHand1			BackHand2			BackHand3	
		X0	Y0	Z0	X1	Y1	Z1	X2	Y2	Z2	X3	Y3	Z3	X4	Y4	Z4	X5	Y5	Z5	X6	Y6	Z6	X7	Y7	Z7	X8	Y8	Z8	X9	Y9	Z9	X10	Y10	Z10	X11	Y11	Z11	X12	Y12	Z12	X13	Y13	Z13	X14	Y14	Z14	X15	Y15	Z15	X16	Y16	Z16	X17	Y17	Z17	X18	Y18	Z18	
0	0	-120.309	5.78513	12.4824	-103.147	-8.60952	-0.814573	-81.0035	-14.1622	-16.8645	-63.7279	-20.4391	-33.067	-124.973	7.05654	-63.912	-117.341	1.45149	-86.9183	-113.064	-1.33647	-116.696	-145.331	10.0152	-74.8895	-144.984	5.78229	-100.826	-145.418	0.787568	-129.145	-165.235	8.33597	-74.7198	-167.38	5.45275	-94.9268	-168.884	1.76437	-121.133	-192.606	5.50843	-63.007	-196.979	1.58286	-80.2659	-200.312	4.30067	-105.421	-171.14	25.5818	-28.1421	-175.957	33.4873	5.35599	-143.018	27.4985	-8.69721	
1	0.00833333	-121.045	4.94251	10.5135	-101.427	-8.12517	-1.39875	-85.1158	-15.261	-18.4645	-63.984	-21.667	-32.3565	-124.053	7.54355	-65.0902	-117.012	2.15251	-91.1488	-113.815	-2.41383	-117.638	-143.38	10.1894	-77.1468	-143.248	6.34266	-98.1617	-144.649	1.12461	-129.044	-168.702	9.97362	-73.2907	-165.393	5.21797	-95.3756	-166.734	2.25305	-126.235	-189.015	4.87221	-59.354	-196.713	1.73581	-85.3383	-201.883	6.25139	-103.46	-173.19	25.5114	-24.7262	-173.936	34.013	2.55802	-141.42	26.4151	-9.88112	
2	0.0166667	-120.592	4.34782	12.9548	-102.865	-8.6029	1.24612	-79.4655	-16.3697	-19.093	-66.4618	-21.742	-29.1162	-117.002	5.8097	-67.15	-116.063	1.26615	-88.3914	-109.043	-2.46207	-112.303	-144.316	11.1485	-73.7454	-141.75	5.90827	-99.0063	-139.832	1.14179	-126.702	-162.248	9.3005	-70.5288	-163.804	4.38663	-99.6038	-166.128	1.89024	-125.05	-188.81	5.89872	-60.8865	-195.225	1.15905	-82.8858	-199.16	3.93743	-103.729	-172.173	26.1187	-25.3416	-172.325	32.1004	2.85295	-142.131	26.6385	-6.91607	
3	0.025	-115.066	3.08297	9.85139	-101.061	-10.3545	-0.856311	-80.0151	-17.2989	-16.4512	-64.2701	-22.8603	-25.7245	-118.061	5.04735	-66.238	-109.461	0.0995607	-90.021	-112.613	-2.74994	-111.249	-140.255	9.7305	-71.4718	-139.814	4.71952	-100.428	-140.307	0.145014	-126.971	-159.824	8.13584	-72.6457	-162.938	3.6495	-97.7869	-162.335	1.0339	-119.347	-182.62	3.64487	-58.9767	-188.735	1.06132	-82.2915	-197.16	5.46188	-102.89	-168.515	23.3644	-27.2302	-174.382	31.7312	1.54029	-138.614	25.4393	-8.96292	
4	0.0333333	-119.268	2.04855	13.2562	-98.2173	-11.6443	-1.28948	-76.9977	-18.1571	-13.3557	-60.0102	-23.9523	-24.8392	-114.581	4.34189	-61.8365	-110.474	-0.228448	-84.6046	-106.364	-3.15816	-109.246	-136.068	8.51009	-76.3809	-135.554	1.86206	-101.573	-136.284	-0.95606	-124.429	-163.526	6.42128	-71.8199	-160.241	2.32834	-98.607	-162.755	-1.43859	-123.608	-186.936	2.67091	-61.1334	-186.448	-1.16812	-80.6173	-196.07	4.014	-102.869	-168.062	23.9225	-26.5399	-167.552	30.2723	1.45595	-138.53	23.3236	-8.43099	
5	0.0416667	-117.255	0.888394	9.66112	-99.014	-11.8908	-0.639075	-77.4751	-18.8607	-17.46	-58.559	-24.4674	-25.316	-113.45	3.04085	-60.2538	-111.97	-2.31695	-88.7364	-106.385	-4.84874	-108.967	-139.832	6.6705	-75.4618	-136.004	1.45213	-98.6446	-138.818	-2.97032	-125.482	-163.422	5.5018	-71.6738	-162.788	0.953113	-98.3231	-163.807	-2.47093	-120.35	-183.932	2.35405	-60.4886	-186.167	-2.36816	-78.3584	-196.069	0.43645	-101.934	-164.792	22.9459	-22.2889	-169.774	29.2998	3.41747	-134.963	22.4349	-6.29072	
6	0.05	-114.54	0.0228513	11.4566	-96.1238	-13.3649	0.36468	-79.9722	-21.2043	-12.7777	-61.4188	-25.81	-25.3458	-116.4	1.22122	-65.0826	-109.173	-4.51242	-83.2773	-108.744	-7.39631	-108.931	-140.53	5.1186	-75.0916	-136.028	-0.120583	-95.4334	-136.569	-4.1917	-126.264	-158.562	3.62301	-67.9408	-161.321	-0.812353	-94.2799	-158.998	-3.90078	-122.826	-185.89	0.315507	-59.6408	-188.747	-4.12462	-82.8383	-195.25	-0.819637	-102.739	-163.879	19.2435	-20.5676	-171.185	28.4239	5.65672	-137.845	23.3151	-5.00111	
7	0.0583333	-115.323	0.0905681	16.7784	-97.518	-14.4608	3.91449	-74.7369	-20.9609	-14.1573	-58.3138	-26.4129	-22.7925	-115.087	0.601994	-62.8761	-107.677	-6.75302	-87.1892	-109.571	-8.74956	-108.639	-138.321	3.77178	-73.7257	-136.693	-1.5657	-95.763	-132.878	-7.43047	-127.844	-157.652	2.6442	-68.415	-163.059	-2.08124	-94.2717	-161.381	-5.8619	-118.701	-184.884	-0.0262304	-61.249	-186.905	-5.21523	-78.5971	-194.219	-3.18421	-105.274	-168.651	19.165	-20.8598	-170.334	26.9228	4.46351	-134.226	22.5118	-4.87891	
8	0.0666667	-115.161	-2.25358	14.5493	-97.5789	-16.1201	1.29266	-79.5193	-22.6572	-14.0328	-58.7373	-28.0335	-27.4105	-115.024	-0.577072	-59.9917	-108.564	-7.44117	-87.5538	-103.62	-11.9171	-111.591	-137.492	3.57353	-69.7534	-138.357	-2.39603	-99.1461	-135.154	-8.29141	-125.135	-158.974	1.9633	-69.8479	-161.834	-2.69449	-93.3263	-157.243	-7.65631	-120.569	-184.691	-1.15484	-56.1668	-186.318	-5.87569	-77.1204	-194.262	-3.62649	-102.744	-165.434	17.1049	-21.6986	-171.119	26.0804	7.62397	-136.245	19.5689	-3.45684	
9	0.075	-117.323	-1.98203	15.8118	-93.7892	-15.8111	3.55148	-75.3655	-21.6559	-10.2671	-62.2187	-29.1909	-24.955	-113.539	-1.98805	-60.7492	-111.377	-7.07559	-83.132	-107.385	-10.9882	-109.367	-135.425	2.30092	-71.8002	-133.806	-3.18075	-96.2535	-133.891	-9.52566	-123.271	-155.246	0.862751	-70.3371	-162.311	-2.90932	-91.607	-158.681	-8.83109	-118.743	-179.75	-3.37868	-55.3394	-187.104	-7.73971	-79.4794	-191.782	-5.95638	-101.479	-167.976	17.2134	-21.7039	-169.926	25.4456	3.40817	-135.191	19.5898	-2.74798	
10	0.0833333	-114.447	-0.99527	14.1927	-95.5699	-14.7174	3.58154	-75.7909	-22.0606	-12.4571	-57.7197	-27.6961	-24.9812	-115.56	-2.8683	-62.1373	-108.132	-8.59972	-83.4494	-107.107	-12.5322	-111.254	-136.384	1.37109	-73.5135	-134.521	-4.60532	-95.1291	-137.101	-10.1371	-123.31	-161.797	-0.598448	-68.9472	-161.494	-4.57428	-91.8513	-157.592	-9.56041	-120.088	-179.7	-5.13003	-55.7609	-186.019	-8.89983	-78.8111	-191.565	-8.08816	-100.658	-167.952	16.3438	-21.5391	-169.548	23.4205	2.53867	-137.109	20.3189	-4.72905	
11	0.0916667	-118.536	-0.852497	16.8343	-93.3312	-12.8325	6.82516	-74.1584	-19.4706	-9.6959	-61.0063	-26.248	-24.2352	-113.955	-2.54311	-61.6538	-107.57	-8.78782	-85.0644	-107.409	-11.8087	-106.709	-137.013	0.813188	-69.9506	-136.682	-4.90695	-96.81	-135.013	-11.1504	-126.046	-160.747	-2.09098	-66.2284	-158.467	-6.96624	-90.2991	-160.15	-11.3656	-116.166	-178.516	-6.69722	-60.2411	-183.776	-11.9473	-76.0724	-193.815	-10.3622	-101.561	-167.975	16.2558	-23.3479	-173.061	24.2152	4.06614	-135.029	17.9673	-5.03903	
12	0.1	-118.118	1.47305	12.9944	-98.186	-12.2373	4.10528	-73.7784	-17.1614	-9.27935	-57.6156	-21.3956	-22.1323	-113.478	-1.10167	-61.9029	-106.082	-6.92453	-83.0831	-106.279	-10.6761	-104.782	-135.678	0.0174527	-71.0731	-136.451	-6.79391	-97.2694	-136.658	-12.1872	-121.428	-162.482	-3.29515	-67.2798	-157.235	-9.20758	-92.5965	-158.95	-15.0063	-116.866	-182.309	-9.73197	-54.9102	-185.129	-15.2483	-74.5171	-191.196	-14.007	-101.879	-164.944	12.4845	-22.8887	-172.521	22.6194	7.36941	-139.088	19.1076	-2.65421	
13	0.108333	-117.765	4.72719	17.4735	-93.4057	-6.03213	4.40197	-73.2534	-10.7218	-12.2712	-57.0494	-15.9316	-24.8258	-119.166	2.1416	-59.2908	-110.435	-2.82225	-81.1433	-106.721	-8.93615	-108.823	-138.636	1.1171	-72.8999	-135.65	-6.81058	-96.367	-134.735	-13.8695	-120.315	-160.12	-4.7799	-68.8086	-159.969	-11.4155	-88.7751	-157.89	-18.283	-114.487	-178.844	-11.6288	-58.8751	-184.857	-20.1102	-79.4317	-188.307	-20.0926	-101.068	-167.813	11.5772	-22.537	-174.476	22.6102	4.90167	-141.828	23.8248	-1.35288	
14	0.116667	-117.141	10.8917	16.52	-95.6148	0.811985	6.38002	-74.1717	-3.13943	-11.0519	-59.9629	-7.44191	-26.4836	-120.39	5.97012	-62.5665	-113.093	0.058808	-83.5294	-108.175	-6.99598	-108.364	-139.354	2.84777	-69.4227	-135.892	-5.94018	-94.7942	-135.599	-17.9614	-124.94	-160.449	-5.36566	-67.5626	-159.794	-13.423	-90.9065	-155.933	-21.7377	-113.149	-182.494	-15.732	-58.407	-183.809	-23.0992	-74.2313	-188.704	-26.5462	-102.254	-174.553	12.1516	-20.1561	-176.057	18.8253	5.79567	-145.613	24.4791	-3.90539	
15	0.125	-118.96	15.0466	15.8825	-96.7492	6.62672	1.99453	-74.7046	5.94695	-17.4296	-60.6314	2.51812	-26.9606	-120.99	11.6331	-61.0503	-111.497	5.5012	-83.9418	-110.914	-4.86087	-111.553	-144.335	4.86389	-68.8833	-135.398	-4.887	-97.5225	-133.143	-17.4811	-120.711	-162.406	-5.56524	-65.8627	-157.542	-14.7208	-88.6836	-154.407	-26.5139	-113.183	-181.955	-17.9733	-56.5451	-179.033	-26.1879	-75.2984	-180.824	-32.3103	-100.771	-173.457	10.5521	-21.5557	-179.382	18.194	7.23206	-147.067	28.5618	-5.97453	
16	0.133333	-121.238	22.0527	16.3445	-96.538	15.7233	-2.17049	-79.6886	15.3167	-18.3661	-63.1672	15.2074	-36.3474	-125.706	17.4782	-60.232	-117.052	7.63952	-87.4259	-112.464	-1.41767	-109.183	-146.976	6.53835	-68.0258	-139.511	-4.26665	-96.1885	-131.011	-19.6482	-118.741	-158.729	-4.42563	-67.1424	-156.738	-16.8448	-91.6723	-146.953	-31.681	-115.389	-177.651	-19.0613	-57.4429	-175.194	-28.2096	-75.3256	-172.239	-38.3749	-98.5576	-177.199	11.2623	-17.3703	-181.26	18.4818	5.74588	-152.928	30.5448	-6.65026	
17	0.141667	-122.927	28.5865	13.6494	-102.438	22.1024	-0.49014	-84.4866	24.6129	-20.5898	-68.9093	26.5996	-39.1144	-127.473	25.0062	-60.4971	-120.129	12.666	-88.0752	-112.96	1.08013	-107.961	-146.026	9.73097	-72.9887	-135.493	-0.855167	-94.949	-122.249	-23.7468	-117.669	-161.173	-4.68038	-68.3719	-154.03	-16.5718	-89.7513	-133.964	-31.6092	-108.518	-174.018	-17.1349	-54.9126	-169.021	-30.3975	-78.8021	-160.02	-41.1172	-96.3406	-177.165	11.7759	-20.0816	-185.075	14.7848	5.6898	-158.849	31.8134	-4.89212	
18	0.15	-126.802	33.9739	11.9982	-107.902	28.1952	-2.55998	-88.5465	33.4848	-27.5336	-80.0199	32.7933	-45.3392	-133.251	28.8492	-60.0964	-122.735	20.1107	-86.9805	-113.002	1.48375	-106.116	-147.825	14.5829	-70.1092	-133.475	-2.09655	-96.8327	-116.349	-19.9107	-108.265	-160.415	-2.51118	-66.3633	-147.447	-17.9998	-90.8054	-121.674	-33.8438	-102.448	-171.445	-17.6357	-55.1948	-158.851	-27.1964	-79.2163	-142.453	-38.0749	-93.1191	-178.411	10.7805	-17.7122	-188.51	13.1736	8.89891	-162.945	31.0306	-2.98976	
19	0.158333	-132.905	36.3719	11.7114	-109.535	37.7079	-5.59902	-96.6633	40.9766	-28.8409	-85.6169	42.9388	-49.1886	-140.25	31.6534	-65.6528	-127.514	24.5462	-85.9766	-107.972	4.44522	-100.384	-148.812	16.4974	-73.8977	-128.19	6.62317	-93.3726	-104.658	-14.7684	-97.9156	-158.66	-3.37848	-70.7013	-141.142	-12.905	-87.5966	-109.673	-26.8917	-91.1825	-168.841	-18.2391	-54.9656	-153.066	-26.9207	-77.6119	-125.712	-36.4962	-84.9984	-181.541	9.35342	-21.0893	-186.632	9.2044	11.271	-165.519	36.7465	-1.92668	
20	0.166667	-137.757	39.6193	11.8411	-113.955	43.9378	-11.7194	-101.691	48.7437	-35.8225	-92.1752	48.8451	-57.2387	-145.045	35.6647	-62.7688	-126.316	24.5665	-88.5571	-100.105	8.66087	-93.2046	-150.826	16.3028	-71.8878	-125.855	10.7635	-91.6595	-94.8844	-6.6142	-85.4424	-156.079	-2.17245	-68.4933	-129.549	-12.7966	-87.3554	-101.453	-16.5705	-78.6155	-162.295	-18.0782	-56.6601	-141.934	-25.0074	-75.9044	-112.226	-25.8845	-75.5066	-179.48	5.32046	-20.3134	-185.341	6.40608	6.75251	-171.522	33.1983	-7.1425	
